<?xml version="1.0" standalone="no"?>
<!DOCTYPE svg PUBLIC "-//W3C//DTD SVG 20010904//EN"
 "http://www.w3.org/TR/2001/REC-SVG-20010904/DTD/svg10.dtd">
<svg version="1.0" xmlns="http://www.w3.org/2000/svg"
 width="255.000000pt" height="255.000000pt" viewBox="0 0 255.000000 255.000000"
 preserveAspectRatio="xMidYMid meet">
<metadata>
Created by potrace 1.11, written by Peter Selinger 2001-2013
</metadata>
<g transform="translate(0.000000,255.000000) scale(0.100000,-0.100000)"
fill="#000000" stroke="none">
<path d="M1214 2462 c-63 -53 -57 -144 11 -177 41 -19 58 -19 93 -1 71 37 71
145 0 182 -36 19 -78 17 -104 -4z"/>
<path d="M913 2314 c-99 -50 -95 -193 6 -239 54 -24 104 -14 148 30 32 32 38
49 34 110 -5 84 -110 139 -188 99z"/>
<path d="M1514 2316 c-68 -30 -95 -116 -59 -185 31 -62 106 -86 170 -55 99 47
100 191 2 237 -42 20 -71 21 -113 3z"/>
<path d="M579 2256 c-39 -22 -57 -56 -53 -100 4 -44 16 -61 57 -83 38 -19 87
-10 118 23 34 37 34 104 -2 139 -31 31 -85 40 -120 21z"/>
<path d="M1863 2251 c-44 -28 -62 -85 -39 -129 51 -99 191 -66 191 44 0 81
-83 128 -152 85z"/>
<path d="M1217 2095 c-69 -24 -107 -79 -107 -155 0 -122 134 -198 242 -138
109 61 107 227 -4 284 -39 20 -89 24 -131 9z"/>
<path d="M432 1963 c-65 -32 -91 -106 -62 -171 22 -48 55 -72 107 -78 109 -14
181 107 122 203 -36 58 -104 77 -167 46z"/>
<path d="M820 1969 c-61 -25 -102 -88 -102 -154 0 -110 105 -188 209 -155 132
42 155 209 41 293 -31 23 -111 32 -148 16z"/>
<path d="M1595 1964 c-71 -37 -101 -92 -92 -171 6 -57 31 -92 88 -121 78 -41
167 -15 210 62 34 60 31 126 -8 174 -54 67 -133 90 -198 56z"/>
<path d="M1992 1962 c-67 -36 -90 -112 -54 -181 33 -66 124 -89 187 -47 87 57
74 192 -21 232 -44 18 -72 17 -112 -4z"/>
<path d="M175 1702 c-47 -29 -61 -63 -46 -112 24 -81 117 -102 174 -40 40 44
37 92 -7 136 -39 39 -75 44 -121 16z"/>
<path d="M2280 1713 c-56 -20 -83 -89 -56 -142 16 -31 61 -61 91 -61 30 0 75
30 91 61 41 80 -41 173 -126 142z"/>
<path d="M580 1634 c-68 -29 -102 -79 -103 -154 -2 -159 199 -217 297 -86 31
41 29 139 -2 184 -42 58 -126 83 -192 56z"/>
<path d="M1855 1639 c-40 -11 -91 -62 -106 -106 -25 -77 16 -170 90 -200 50
-21 122 -13 165 20 39 31 70 99 62 143 -2 16 -5 34 -5 41 -2 19 -51 73 -84 89
-36 19 -81 23 -122 13z"/>
<path d="M1147 1582 c-36 -39 -11 -102 39 -102 24 0 64 31 64 51 0 15 -21 53
-34 61 -20 13 -53 8 -69 -10z"/>
<path d="M1317 1583 c-39 -44 -15 -103 42 -103 51 0 76 60 40 98 -24 26 -60
28 -82 5z"/>
<path d="M1007 1482 c-37 -40 -9 -102 46 -102 28 0 57 32 57 62 0 25 -36 58
-63 58 -13 0 -31 -8 -40 -18z"/>
<path d="M1456 1485 c-37 -37 -26 -89 20 -101 61 -15 100 43 62 91 -22 28 -59
33 -82 10z"/>
<path d="M243 1394 c-44 -22 -78 -89 -69 -137 23 -125 180 -153 246 -44 68
110 -58 239 -177 181z"/>
<path d="M2173 1394 c-44 -22 -78 -91 -68 -141 9 -48 60 -99 108 -108 47 -9
104 18 134 64 74 111 -52 245 -174 185z"/>
<path d="M955 1316 c-17 -17 -22 -31 -18 -47 9 -38 23 -49 59 -49 63 0 81 79
25 109 -29 16 -39 14 -66 -13z"/>
<path d="M1512 1324 c-26 -18 -30 -75 -7 -94 24 -20 67 -15 87 10 24 30 23 46
-7 75 -28 29 -42 31 -73 9z"/>
<path d="M601 1229 c-103 -22 -156 -142 -107 -238 39 -75 157 -106 226 -59 52
36 80 83 80 137 -1 107 -95 183 -199 160z"/>
<path d="M1857 1226 c-76 -22 -125 -98 -114 -179 6 -47 30 -83 78 -115 28 -20
44 -23 92 -20 69 5 103 27 135 89 65 124 -54 265 -191 225z"/>
<path d="M1022 1169 c-43 -16 -42 -86 1 -107 24 -12 32 -11 53 3 33 21 39 39
24 74 -13 31 -43 43 -78 30z"/>
<path d="M1472 1169 c-35 -13 -48 -53 -28 -84 9 -14 20 -25 24 -26 4 0 15 -2
24 -4 27 -5 61 27 61 58 0 47 -37 72 -81 56z"/>
<path d="M1158 1066 c-28 -14 -38 -76 -15 -95 28 -22 58 -21 83 4 28 28 30 42
9 72 -19 26 -47 34 -77 19z"/>
<path d="M1333 1070 c-28 -11 -41 -36 -35 -66 9 -50 62 -65 98 -28 29 28 26
57 -8 87 -23 19 -24 19 -55 7z"/>
<path d="M154 1004 c-19 -19 -34 -45 -34 -56 0 -36 31 -86 62 -101 113 -55
206 112 99 176 -48 28 -89 22 -127 -19z"/>
<path d="M2244 1006 c-40 -40 -44 -75 -14 -123 12 -21 31 -35 56 -42 108 -30
178 102 93 173 -45 38 -92 35 -135 -8z"/>
<path d="M794 875 c-77 -46 -100 -150 -49 -226 31 -48 75 -71 134 -72 88 -1
150 56 159 145 13 137 -126 224 -244 153z"/>
<path d="M1579 877 c-51 -34 -79 -82 -79 -136 1 -114 108 -192 215 -155 101
34 141 154 81 245 -46 69 -150 91 -217 46z"/>
<path d="M434 831 c-49 -21 -81 -82 -75 -141 7 -65 63 -110 135 -110 43 0 53
4 87 39 35 35 39 44 39 90 0 44 -5 56 -33 87 -28 31 -41 37 -83 40 -27 2 -58
0 -70 -5z"/>
<path d="M1990 827 c-38 -19 -70 -74 -70 -121 0 -86 92 -149 174 -121 46 16
73 47 87 97 20 78 -45 158 -128 158 -21 0 -49 -6 -63 -13z"/>
<path d="M1229 771 c-137 -43 -165 -218 -46 -294 122 -79 279 28 247 169 -20
90 -119 151 -201 125z"/>
<path d="M568 472 c-82 -50 -40 -184 56 -184 44 0 72 16 91 52 19 38 19 65 -2
100 -29 50 -94 64 -145 32z"/>
<path d="M903 470 c-110 -67 -64 -240 64 -242 58 -1 101 26 124 76 53 121 -76
235 -188 166z"/>
<path d="M1514 480 c-41 -16 -74 -68 -74 -117 0 -80 52 -134 130 -135 46 0
103 33 119 70 28 61 0 147 -58 177 -32 16 -84 19 -117 5z"/>
<path d="M1852 465 c-36 -30 -47 -66 -32 -110 19 -58 93 -85 150 -55 23 12 50
60 50 89 0 85 -103 131 -168 76z"/>
<path d="M1199 251 c-53 -54 -33 -140 41 -171 60 -25 130 30 130 102 0 89
-107 132 -171 69z"/>
</g>
</svg>
